 http://leetleech.org/images/38926506494386651056.jpg

Comparison with all other brrip/dvdrip encodes:
 
http://leetleech.org/images/42256095975786256362.jpg

Screens:
 
http://leetleech.org/images/38859644116917146984.jpg
 
http://leetleech.org/images/93752325451310500791.jpg
 
http://leetleech.org/images/11961197720701518695.jpg
 
http://leetleech.org/images/88046239836686839977.jpg
 
http://leetleech.org/images/69588931065945250533.jpg

Alternative:
 
http://www.postimg.com/image/32000/photo-31682.jpg
 
http://www.postimg.com/image/32000/photo-31684.jpg
 
http://www.postimg.com/image/32000/photo-31685.jpg
 
http://www.postimg.com/image/32000/photo-31686.jpg
 
http://www.postimg.com/image/32000/photo-31688.jpg
 
http://www.postimg.com/image/32000/photo-31689.jpg

ScreenCaps:
 
http://www.postimg.com/image/32000/photo-31691.jpg

Harry Potter and the Deathly Hallows Part 1 HDRip XviD-MAX
Format                           : AVI
Format/Info                      : Audio Video Interleave
Format profile                   : OpenDML
File size                        : 2.03 GiB
Duration                         : 2h 26mn
Overall bit rate                 : 1 991 Kbps
Writing application              : VirtualDubMod 1.5.10.2 (build 2542/release)
Writing library                  : VirtualDubMod build 2542/release
Original source form             : MAX TORRENTZ
Copyright                        : SIGISMUNT

Video
ID                               : 0
Format                           : MPEG-4 Visual
Format profile                   : Simple@L0
Format settings, BVOP            : No
Format settings, QPel            : No
Format settings, GMC             : No warppoints
Format settings, Matrix          : Default (H.263)
Codec ID                         : XVID
Codec ID/Hint                    : XviD
Duration                         : 2h 26mn
Bit rate                         : 1 796 Kbps
Width                            : 720 pixels
Height                           : 304 pixels
Display aspect ratio             : 2.35:1
Frame rate                       : 23.976 fps
Resolution                       : 24 bits
Colorimetry                      : 4:2:0
Scan type                        : Progressive
Bits/(Pixel*Frame)               : 0.342
Stream size                      : 1.83 GiB (90%)
Writing library                  : XviD 1.2.1 (UTC 2008-12-04)

Audio
ID                               : 1
Format                           : MPEG Audio
Format version                   : Version 1
Format profile                   : Layer 3
Codec ID                         : 55
Codec ID/Hint                    : MP3
Duration                         : 2h 25mn
Bit rate mode                    : Constant
Bit rate                         : 192 Kbps
Channel(s)                       : 2 channels
Sampling rate                    : 48.0 KHz
Resolution                       : 16 bits
Stream size                      : 200 MiB (10%)
Alignment                        : Aligned on interleaves
Interleave, duration             : 448 ms (10.74 video frames)
Interleave, preload duration     : 216 ms
Writing library                  : LAME3.98.2

Source: HighDefinition 5.1-P2P (top a/v/sync quality,sample included)
Uploader Note: Encoding took 9 hours since the original file received on our forum 
was 26GiB in size , so please enjoy it and appologize us for the dvdrip in bad 
quality we released yesterday (source was bad in that one)
On this release we did: Demuxing original 26GiB file (multi6 language) audio tracks/
encoding video file/encoding audio file/audio+video merged

Note:If you have something to offer as early releases,seedboxes,
links,accounts,etc please contact us on torentz 3xforum ro
Seed Stats: 20-400 GiB at aprox 10 MiB/sec/20 slots per torrent
 
http://www.imdb.com/title/tt0926084/

Harry Potter and the Deathly Hallows Part 1 HDRip XviD-MAX Torrent Free Download
 
http://thepiratebay.org/user/extremezone/0/7

How To Get Your Maxspeed (uTorrent)

Torrent Client - Preferences - Bandwidth - Number of connections - Set aprox. 500 for each 
Torrent Client - Preferences - BiTorrent - Protocol Encryption - Forced
Bandwidth Allocation - High (Set download/upload limit - Unlimited)
Stop Other Active Torrents - Start downloading and wait for connections.
Enjoy and Seed for at least 1:1 ratio. Don't forget to say thanks/leave reviews.
Before downloading you should check/google search sample "release name""sample".
Greets to all actual/future p2p/scene QUALITY groups and affiliate websites.
Don't trust IMDb robot or bad ratings,always watch some trailers first.
Ignore stupid comments/fake/mislabeled/no-DVDrips/CAM/TS/RAR uploads.
Please spread this release/torrent to your friends/forums/etc.
If you need translation subs visit some subtitles sites.
Report if you see online streaming or other spam links.
Recommended movie player VLC PLAYER.